<?xml version="1.0" encoding="UTF-8"?>
<svg width="30px" height="23px" viewBox="0 0 30 23" version="1.1" xmlns="http://www.w3.org/2000/svg" xmlns:xlink="http://www.w3.org/1999/xlink">
    <!-- Generator: Sketch 40 (33762) - http://www.bohemiancoding.com/sketch -->
    <title>favicon</title>
    <desc>Created with Sketch.</desc>
    <defs></defs>
    <g id="Page-3" stroke="none" stroke-width="1" fill="none" fill-rule="evenodd" stroke-linecap="square">
        <g id="favicon" transform="translate(-1.000000, -1.000000)">
            <path d="M30.5,22.5 L29.5,22.5" id="Line-Copy-33" stroke="#979797"></path>
            <path d="M29.5,23.5 L28.5,23.5" id="Line-Copy-34" stroke="#979797"></path>
            <path d="M30.5,21.5 L28.5,21.5" id="Line-Copy-35" stroke="#6F6F6F"></path>
            <path d="M29.5,5.5 L29.5,22.5" id="Line-Copy-5" stroke="#000000"></path>
            <path d="M29.5,1.5 L28.5,1.5" id="Line-Copy-7" stroke="#979797"></path>
            <path d="M3.5,1.5 L2.5,1.5" id="Line-Copy-26" stroke="#979797"></path>
            <path d="M3.5,23.5 L2.5,23.5" id="Line-Copy-30" stroke="#979797"></path>
            <path d="M2.5,22.5 L1.5,22.5" id="Line-Copy-31" stroke="#979797"></path>
            <path d="M2.5,2.5 L1.5,2.5" id="Line-Copy-28" stroke="#979797"></path>
            <path d="M30.5,2.5 L29.5,2.5" id="Line-Copy-24" stroke="#979797"></path>
            <path d="M28.5,1.5 L26.5,1.5" id="Line-Copy-8" stroke="#6F6F6F"></path>
            <path d="M5.5,1.5 L3.5,1.5" id="Line-Copy-27" stroke="#6F6F6F"></path>
            <path d="M3.5,21.5 L1.5,21.5" id="Line-Copy-32" stroke="#6F6F6F"></path>
            <path d="M3.5,3.5 L1.5,3.5" id="Line-Copy-29" stroke="#6F6F6F"></path>
            <path d="M30.5,3.5 L28.5,3.5" id="Line-Copy-25" stroke="#6F6F6F"></path>
            <path d="M1.5,5.5 L1.5,20.5" id="Line" stroke="#000000"></path>
            <path d="M2.5,5.5 L2.5,22.5" id="Line-Copy" stroke="#000000"></path>
            <path d="M3.5,5.5 L3.5,23.5" id="Line-Copy-2" stroke="#000000"></path>
            <path d="M4.5,5.5 L4.5,23.5" id="Line-Copy-3" stroke="#000000"></path>
            <path d="M28.5,5.5 L28.5,23.5" id="Line-Copy-4" stroke="#000000"></path>
            <path d="M30.5,5.5 L30.5,20.5" id="Line-Copy-6" stroke="#000000"></path>
            <path d="M4.5,1.5 L14.5,1.5" id="Line" stroke="#000000"></path>
            <path d="M17.5,1.5 L26.5,1.5" id="Line-Copy-9" stroke="#000000"></path>
            <path d="M2.5,2.5 L14.5,2.5" id="Line-Copy-10" stroke="#000000"></path>
            <path d="M17.5,2.5 L29.5,2.5" id="Line-Copy-13" stroke="#000000"></path>
            <path d="M2.5,3.5 L14.5,3.5" id="Line-Copy-11" stroke="#000000"></path>
            <path d="M17.5,3.5 L29.5,3.5" id="Line-Copy-14" stroke="#000000"></path>
            <path d="M1.5,4.5 L14.5,4.5" id="Line-Copy-12" stroke="#000000"></path>
            <path d="M3.5,7.5 L24.5,7.5" id="Line-Copy-36" stroke="#000000"></path>
            <path d="M3.5,15.5 L24.5,15.5" id="Line-Copy-41" stroke="#000000"></path>
            <path d="M3.5,16.5 L24.5,16.5" id="Line-Copy-40" stroke="#000000"></path>
            <path d="M3.5,12.5 L24.5,12.5" id="Line-Copy-39" stroke="#000000"></path>
            <path d="M3.5,11.5 L24.5,11.5" id="Line-Copy-38" stroke="#000000"></path>
            <path d="M3.5,8.5 L24.5,8.5" id="Line-Copy-37" stroke="#000000"></path>
            <path d="M17.5,4.5 L30.5,4.5" id="Line-Copy-15" stroke="#000000"></path>
            <path d="M17.5,20.5 L27.5,20.5" id="Line-Copy-16" stroke="#000000"></path>
            <path d="M5.5,20.5 L14.5,20.5" id="Line-Copy-20" stroke="#000000"></path>
            <path d="M5.5,21.5 L14.5,21.5" id="Line-Copy-21" stroke="#000000"></path>
            <path d="M5.5,22.5 L14.5,22.5" id="Line-Copy-22" stroke="#000000"></path>
            <path d="M5.5,23.5 L14.5,23.5" id="Line-Copy-23" stroke="#000000"></path>
            <path d="M17.5,21.5 L27.5,21.5" id="Line-Copy-17" stroke="#000000"></path>
            <path d="M17.5,22.5 L27.5,22.5" id="Line-Copy-18" stroke="#000000"></path>
            <path d="M17.5,23.5 L27.5,23.5" id="Line-Copy-19" stroke="#000000"></path>
        </g>
    </g>
</svg>